<?xml version="1.0" standalone="no"?>
<!DOCTYPE svg PUBLIC "-//W3C//DTD SVG 20010904//EN"
 "http://www.w3.org/TR/2001/REC-SVG-20010904/DTD/svg10.dtd">
<svg version="1.0" xmlns="http://www.w3.org/2000/svg"
 width="224.000000pt" height="35.000000pt" viewBox="0 0 224.000000 35.000000"
 preserveAspectRatio="xMidYMid meet">

<g transform="translate(0.000000,35.000000) scale(0.100000,-0.100000)"
fill="#000000" stroke="none">
<path d="M1747 342 c-35 -8 -77 -131 -77 -228 0 -41 -3 -46 -34 -61 -32 -15
-66 -13 -66 4 0 4 15 15 33 23 27 13 32 20 32 50 0 33 -2 35 -36 38 -30 3 -41
-2 -58 -24 -21 -26 -28 -78 -13 -100 10 -15 47 -34 67 -34 9 0 32 7 51 16 31
15 35 15 49 0 20 -20 45 -20 70 -3 15 12 23 12 48 -1 24 -12 39 -13 71 -4 29
7 44 7 54 0 16 -14 26 -3 41 44 7 20 19 42 27 48 12 11 14 5 14 -39 0 -58 14
-71 56 -52 19 8 29 8 44 -1 16 -10 24 -10 40 -1 12 8 21 9 25 3 13 -21 34 -9
39 23 17 111 17 111 -10 124 -42 20 -92 -11 -109 -67 -10 -33 -24 -50 -42 -50
-11 0 -14 7 -10 23 3 12 9 39 12 60 7 35 6 37 -18 37 -17 0 -35 -12 -56 -36
l-30 -37 9 37 c7 31 5 36 -10 36 -18 0 -30 -26 -30 -67 0 -26 -47 -65 -74 -61
-29 4 -30 25 -2 32 31 8 50 40 42 72 -5 19 -13 24 -40 24 -39 0 -76 -37 -76
-76 0 -32 -39 -59 -58 -40 -11 11 -8 23 22 77 41 76 60 140 51 179 -7 30 -19
39 -48 32z m23 -57 c0 -31 -28 -114 -47 -140 -14 -18 -15 -15 -10 35 4 30 11
72 17 93 12 42 40 51 40 12z m-166 -173 c-14 -22 -44 -28 -44 -8 0 23 31 49
44 36 7 -7 8 -15 0 -28z m592 11 c-12 -50 -29 -84 -40 -80 -20 6 -18 52 4 80
28 35 44 35 36 0z m-326 8 c0 -12 -29 -41 -41 -41 -10 0 -12 33 -2 43 10 10
43 8 43 -2z"/>
<path d="M532 313 c-17 -7 -52 -77 -52 -104 0 -12 -8 -23 -20 -26 -23 -6 -27
-28 -5 -37 26 -9 17 -52 -16 -80 -32 -27 -54 -32 -78 -17 -10 7 -5 13 22 26
39 18 52 43 42 75 -14 45 -115 12 -115 -37 0 -10 -15 -28 -34 -41 -32 -22 -37
-23 -96 -11 l-63 12 7 75 c7 84 24 119 61 128 33 8 55 -11 55 -48 0 -43 34
-35 38 9 9 93 -146 99 -184 8 -8 -19 -14 -61 -14 -95 0 -59 0 -60 -35 -74 -24
-10 -35 -22 -35 -35 0 -29 43 -38 76 -16 23 15 29 15 71 1 63 -22 87 -20 120
8 l28 24 22 -24 c27 -29 67 -31 111 -4 32 20 32 20 52 0 22 -22 51 -26 80 -10
13 7 27 7 44 -1 20 -10 30 -9 48 3 21 14 26 14 47 0 19 -13 30 -14 68 -4 35
10 49 10 59 1 11 -9 21 -9 40 -1 19 9 29 9 44 0 15 -10 25 -10 38 -2 12 8 22
8 35 0 24 -15 37 6 37 59 0 22 3 49 5 60 4 15 -1 23 -20 32 -44 20 -93 -11
-110 -67 -10 -33 -24 -50 -42 -50 -15 0 -14 23 4 97 4 18 1 23 -15 23 -17 0
-22 -8 -27 -37 -8 -50 -17 -65 -48 -83 -21 -12 -28 -12 -41 -1 -26 22 -18 91
10 91 8 0 14 -9 14 -21 0 -12 5 -19 13 -16 6 2 12 17 12 33 0 25 -4 29 -32 32
-38 4 -73 -29 -73 -68 0 -31 -34 -68 -45 -50 -6 10 -1 61 11 103 4 12 0 17
-14 17 -22 0 -32 -18 -32 -56 0 -14 -11 -36 -25 -50 -20 -20 -28 -23 -45 -14
-15 8 -20 21 -20 55 l0 45 40 0 c29 0 40 4 40 15 0 10 -10 15 -27 15 -25 0
-25 1 -10 18 53 58 38 139 -21 115z m24 -55 c-4 -18 -16 -42 -27 -53 l-21 -20
7 35 c9 44 23 70 37 70 7 0 8 -12 4 -32z m440 -135 c-12 -50 -29 -84 -40 -80
-20 6 -18 52 4 80 28 35 44 35 36 0z m-603 10 c9 -9 -22 -43 -40 -43 -16 0
-16 5 -3 31 11 19 31 25 43 12z"/>
<path d="M1405 300 c-10 -11 -26 -44 -36 -72 -17 -51 -19 -53 -56 -56 l-38 -3
3 56 c4 64 -8 85 -48 85 -31 0 -90 -43 -90 -66 0 -20 8 -18 43 12 26 22 32 24
45 11 11 -12 13 -27 8 -61 -6 -40 -10 -46 -32 -46 -15 0 -24 -6 -24 -15 0 -9
9 -15 21 -15 17 0 20 -4 15 -22 -18 -66 -19 -98 -3 -98 20 0 35 26 43 79 4 23
12 41 19 41 7 0 27 3 44 6 31 6 31 6 31 -35 0 -57 37 -96 83 -87 38 8 67 33
67 59 0 20 0 20 -23 -1 -45 -42 -87 -20 -87 46 0 24 8 34 35 51 40 23 57 59
53 110 -3 30 -7 36 -29 39 -15 2 -32 -5 -44 -18z m55 -34 c0 -25 -35 -76 -52
-76 -14 0 -2 57 18 87 17 27 34 22 34 -11z"/>
<path d="M650 270 c-33 -64 -21 -83 18 -30 18 24 31 49 29 54 -8 24 -28 14
-47 -24z"/>
<path d="M834 239 c-9 -16 20 -41 39 -33 27 10 21 44 -7 44 -14 0 -28 -5 -32
-11z"/>
</g>
</svg>
